<?xml version="1.0" encoding="utf-8"?>
<!-- Generator: Adobe Illustrator 18.1.0, SVG Export Plug-In . SVG Version: 6.00 Build 0)  -->
<svg version="1.1" id="Layer_1" xmlns="http://www.w3.org/2000/svg" xmlns:xlink="http://www.w3.org/1999/xlink" x="0px" y="0px"
	 viewBox="0 0 2000 1000" enable-background="new 0 0 2000 1000" xml:space="preserve">
<g>
	<path fill="#D7352D" d="M1177.6,317.3c-21.1-6.1-43,6.2-49.1,27.3l-45.4,158.6l-45.4-158.6c-4.9-17-20-28-36.7-28.6
		c-0.8-0.1-1.7,0-2.5-0.1c-0.8,0-1.7,0-2.5,0.1c-16.7,0.6-31.8,11.7-36.7,28.6l-45.2,158l-45.2-158c-6-21.1-28-33.4-49.1-27.3
		c-21.1,6.1-33.3,28.1-27.2,49.2l82.6,288.9c4.8,16.7,19.5,27.7,35.9,28.6c1,0.1,2,0,2.9,0.1c1,0,2,0,2.9-0.1
		c16.4-0.9,31.1-11.9,35.9-28.6l45.5-159.2l45.5,159.2c4.8,16.9,19.8,27.9,36.4,28.6c0.9,0.1,1.8,0,2.7,0.1c0.9,0,1.8,0,2.7-0.1
		c16.5-0.8,31.5-11.8,36.4-28.6l82.6-288.9C1210.8,345.4,1198.7,323.4,1177.6,317.3z"/>
	<path fill="#D7352D" d="M1255.5,640.5c0,24.4,19.3,43.6,43.6,43.6c24.4,0,43.6-19.3,43.6-43.6V359.4c0-24.4-19.3-43.6-43.6-43.6
		c-24.4,0-43.6,19.3-43.6,43.6V640.5z"/>
	<path fill="#D7352D" d="M655.7,640.6c0,24.4,19.3,43.6,43.6,43.6c24.4,0,43.6-19.3,43.6-43.6V359.5c0-24.4-19.3-43.6-43.6-43.6
		c-24.4,0-43.6,19.3-43.6,43.6V640.6z"/>
	<path fill="#D7352D" d="M1574.5,498.8l113-113c16.2-16.2,16.2-41.8,0-58c-16.2-16.2-41.8-16.2-58,0l-134.8,134.8V359.4
		c0-24.4-19.3-43.6-43.6-43.6c-24.4,0-43.6,19.3-43.6,43.6v281.1c0,24.4,19.3,43.6,43.6,43.6c24.4,0,43.6-19.3,43.6-43.6v-61.8
		l21.9-21.9l111.6,113.6c16,16.3,41.6,16.5,58,0.5c16.3-16,16.5-41.6,0.5-58L1574.5,498.8z"/>
	<path fill="#D7352D" d="M606.1,446.8c0-70.3-55.6-127.5-125.3-130.4l0.1-0.3H344.1c-24.4,0-43.6,19.3-43.6,43.6V640
		c0,24.4,19.3,43.6,43.6,43.6c24.4,0,43.6-19.3,43.6-43.6v-62.6h93.2l-0.1-0.3C550.5,574.4,606.1,517.2,606.1,446.8z M466.8,499.9
		L466.8,499.9l-79.1,0V395h77.6c29,0,52.5,23.5,52.5,52.5C517.7,475.9,495.1,499,466.8,499.9z"/>
</g>
</svg>
